HIERARCHY
ROOT root
{
	OFFSET	0	13.1	24.9
	CHANNELS 6  Xposition Yposition Zposition Xrotation Yrotation Zrotation
	JOINT spine_1
	{
		OFFSET	0	9.99999	0
		CHANNELS 3  Xrotation Yrotation Zrotation
		JOINT spine_2
		{
			OFFSET	0	112	-10
			CHANNELS 3  Xrotation Yrotation Zrotation
			JOINT spine_3
			{
				OFFSET	0	206.5	19.3
				CHANNELS 3  Xrotation Yrotation Zrotation
				JOINT spine_4
				{
					OFFSET	0	110.4	14.6
					CHANNELS 3  Xrotation Yrotation Zrotation
					JOINT neck_1
					{
						OFFSET	0	71.8	-50.3
						CHANNELS 3  Xrotation Yrotation Zrotation
						JOINT neck_2
						{
							OFFSET	0	86.2	-25.8
							CHANNELS 3  Xrotation Yrotation Zrotation
							JOINT head_ee
							{
								OFFSET	0	179.8	-8.7
								CHANNELS 3  Xrotation Yrotation Zrotation
								End Site
								{
									OFFSET	1	0	0
								}
							}
						}
					}
					JOINT left_clavicle
					{
						OFFSET	-43.2	22.4	-70.8
						CHANNELS 3  Xrotation Yrotation Zrotation
						JOINT left_shoulder
						{
							OFFSET	-93.9	-5.79999	48.7
							CHANNELS 3  Xrotation Yrotation Zrotation
							JOINT left_elbow
							{
								OFFSET	-291.4	-30.8	15.2
								CHANNELS 3  Xrotation Yrotation Zrotation
								JOINT left_lowarm_twist
								{
									OFFSET	-110.7	-3.89999	13.6
									CHANNELS 3  Xrotation Yrotation Zrotation
									JOINT left_hand
									{
										OFFSET	-110.7	-3.89999	13.6
										CHANNELS 3  Xrotation Yrotation Zrotation
										JOINT left_ee
										{
											OFFSET	-80.8	-5.10001	12.1
											CHANNELS 3  Xrotation Yrotation Zrotation
											End Site
											{
												OFFSET	1	0	0
											}
										}
									}
								}
							}
						}
					}
					JOINT right_clavicle
					{
						OFFSET	43.2	22.4	-70.8
						CHANNELS 3  Xrotation Yrotation Zrotation
						JOINT right_shoulder
						{
							OFFSET	93.9	-5.79999	48.7
							CHANNELS 3  Xrotation Yrotation Zrotation
							JOINT right_elbow
							{
								OFFSET	291.4	-30.8	15.2
								CHANNELS 3  Xrotation Yrotation Zrotation
								JOINT right_lowarm_twist
								{
									OFFSET	110.7	-3.89999	13.6
									CHANNELS 3  Xrotation Yrotation Zrotation
									JOINT right_hand
									{
										OFFSET	110.7	-3.89999	13.6
										CHANNELS 3  Xrotation Yrotation Zrotation
										JOINT right_ee
										{
											OFFSET	80.8	-5.10001	12.1
											CHANNELS 3  Xrotation Yrotation Zrotation
											End Site
											{
												OFFSET	1	0	0
											}
										}
									}
								}
							}
						}
					}
				}
			}
		}
	}
	JOINT left_hip
	{
		OFFSET	-82.8	-127.5	0.300001
		CHANNELS 3  Xrotation Yrotation Zrotation
		JOINT left_knee
		{
			OFFSET	-28.2	-396.7	2.2
			CHANNELS 3  Xrotation Yrotation Zrotation
			JOINT left_ankle
			{
				OFFSET	-11.7	-411.3	35.4
				CHANNELS 3  Xrotation Yrotation Zrotation
				JOINT left_toes
				{
					OFFSET	0	-60	-88.6
					CHANNELS 3  Xrotation Yrotation Zrotation
					JOINT left_foot_ee
					{
						OFFSET	-22.5	-16.5	-42.2
						CHANNELS 3  Xrotation Yrotation Zrotation
						End Site
						{
							OFFSET	1	0	0
						}
					}
				}
			}
		}
	}
	JOINT right_hip
	{
		OFFSET	82.8	-127.5	0.300001
		CHANNELS 3  Xrotation Yrotation Zrotation
		JOINT right_knee
		{
			OFFSET	28.2	-396.7	2.2
			CHANNELS 3  Xrotation Yrotation Zrotation
			JOINT right_ankle
			{
				OFFSET	11.7	-411.3	35.4
				CHANNELS 3  Xrotation Yrotation Zrotation
				JOINT right_toes
				{
					OFFSET	0	-60	-88.6
					CHANNELS 3  Xrotation Yrotation Zrotation
					JOINT right_foot_ee
					{
						OFFSET	22.5	-16.5	-42.2
						CHANNELS 3  Xrotation Yrotation Zrotation
						End Site
						{
							OFFSET	1	0	0
						}
					}
				}
			}
		}
	}
}
MOTION
Frames: 13
Frame Time: 0.02
2643.58 692.997 -1489.11 -2.54256 62.6393 -5.84277 -1.08519 0.333644 3.69675 -1.0776 0.0978995 3.71046 -1.06559 -0.752807 3.63471 -1.08398 -0.169738 3.70787 -1.57645 17.2576 -2.66963 -0.803207 33.2621 -0.827924 -0.0 0.0 -0.0 0.0847614 5.68035 0.829335 16.4753 -15.6005 53.7942 2.68882 -53.0924 1.34349 -62.322 -5.57286 5.16758 -0.982795 9.9787 -2.16372 -0.0 0.0 -0.0 12.5136 16.024 -25.3391 -27.3044 27.6816 -58.7763 0.479233 13.3549 -0.0561059 -9.58429 0.434568 -1.14426 -3.05488 2.95716 22.3505 0.0 0.0 0.0 -16.1931 -2.23097 21.8946 -3.63136 0.132388 0.541484 41.2015 24.3115 -5.25919 -21.7382 0.0 0.0 -0.0 0.0 -0.0 36.0603 19.4306 -7.67035 -0.210388 -0.00860582 -0.0311392 -12.5187 -12.3026 -1.87571 -34.8482 0.0 0.0 0.0 0.0 0.0 
2623.03 688.252 -1494.35 -2.55807 63.2182 -5.82457 -1.19833 0.253552 3.69658 -1.19073 0.0179799 3.70521 -1.18389 -0.837025 3.6096 -1.20198 -0.25686 3.69635 -0.868735 17.2221 -3.36105 0.0476081 33.6247 -1.80026 -0.0 0.0 -0.0 0.181419 6.45872 1.09422 15.2776 -16.1467 54.7795 2.56006 -51.7345 1.24145 -62.2114 -5.55899 5.16469 -0.819702 9.88624 -1.15922 -0.0 0.0 -0.0 12.71 16.1533 -25.7879 -26.5684 27.7119 -58.9341 0.464856 12.968 -0.0528324 -8.89645 0.397046 -1.06468 -3.09582 2.19455 22.27 0.0 0.0 0.0 -16.5569 -2.33918 21.8719 -5.16581 0.177957 0.772559 41.9777 24.3638 -5.33243 -21.3208 0.0 0.0 -0.0 0.0 -0.0 36.235 19.4309 -7.74705 -3.34132 -0.12308 -0.497945 -14.1175 -12.1945 -2.1184 -35.1545 0.0 0.0 0.0 0.0 0.0 
2604.0 685.071 -1499.2 -1.26084 63.7209 -6.80611 -1.26925 0.451704 3.52882 -1.26235 0.226385 3.55038 -1.24252 -0.601659 3.5064 -1.25967 -0.0407031 3.55734 0.901428 15.3135 -5.38216 2.02182 31.5637 -4.69732 -0.0 0.0 -0.0 0.177583 7.03044 1.1527 12.8555 -16.4383 55.7752 2.69239 -53.1289 1.34634 -60.3738 -5.32928 5.11267 -0.617897 5.72255 -1.65425 -0.0 0.0 -0.0 12.4954 17.0048 -25.2536 -24.8576 28.3232 -59.8574 0.441149 12.3274 -0.0476415 -8.5209 0.376966 -1.02104 -2.77587 3.75561 20.7202 0.0 0.0 0.0 -16.0641 -2.80195 21.1265 -10.9826 0.294117 1.65724 42.3341 24.4802 -5.36872 -18.0666 0.0 0.0 -0.0 0.0 -0.0 36.2387 19.8948 -7.8701 -7.35364 -0.232186 -1.10391 -15.9621 -6.30404 -2.39661 -32.2013 0.0 0.0 0.0 0.0 0.0 
2581.99 690.281 -1503.69 -1.49601 63.4709 -6.84089 -1.28302 0.628467 3.61274 -1.27585 0.397462 3.64535 -1.24407 -0.457023 3.63837 -1.26252 0.122925 3.66486 -0.138813 15.1446 -4.37821 0.742725 30.5923 -3.28771 -0.0 0.0 -0.0 0.072779 10.0983 1.32114 11.3705 -17.369 56.7286 2.31945 -48.959 1.05615 -62.1287 -5.54861 5.1625 -0.671654 4.29741 -2.62362 -0.0 0.0 -0.0 12.9953 16.9503 -26.4154 -24.525 28.1672 -59.553 0.44833 12.5218 -0.0491867 -8.22059 0.361115 -0.986054 -2.65402 3.61667 19.7792 0.0 0.0 0.0 -15.9262 -3.73879 21.3053 -11.2052 0.296773 1.69127 38.2143 24.5759 -4.98002 -21.1917 0.0 0.0 -0.0 0.0 -0.0 35.4629 21.6312 -7.8912 -10.2179 -0.283984 -1.54033 -11.5238 -7.89048 -1.72149 -33.0705 0.0 0.0 0.0 0.0 0.0 
2558.9 691.292 -1512.91 0.19405 63.0393 -7.62143 -1.32872 0.72099 3.22303 -1.32309 0.514552 3.26232 -1.28824 -0.256686 3.29263 -1.30327 0.266255 3.29187 -0.976211 13.79 -3.51135 -0.367381 27.5765 -2.23039 -0.0 0.0 -0.0 0.0962957 11.3722 1.50763 8.28928 -17.4875 57.4965 2.15531 -46.8688 0.934314 -61.6797 -5.49236 5.15039 -0.188661 -0.106313 -1.30507 -0.0 0.0 -0.0 12.9313 17.4959 -26.2395 -21.2902 28.6832 -61.109 0.222531 6.29077 -0.0122287 -6.57917 0.277739 -0.79341 -2.6546 3.70055 19.8234 0.0 0.0 0.0 -16.5281 -4.61319 20.5872 -13.8143 0.318034 2.09101 39.184 24.5262 -5.07393 -21.0318 0.0 0.0 -0.0 0.0 -0.0 34.3912 23.1388 -9.20688 -13.6654 -0.317311 -2.06817 -4.57449 -7.29121 -0.676185 -32.8778 0.0 0.0 0.0 0.0 0.0 
2534.6 696.284 -1518.6 0.870549 63.228 -8.13898 -1.30898 0.738611 3.2656 -1.3032 0.529432 3.30592 -1.26697 -0.251078 3.33858 -1.28241 0.279039 3.33636 -1.08271 13.22 -3.77743 -0.506183 26.7737 -2.54827 -0.0 0.0 -0.0 0.236765 13.2167 1.9489 6.4632 -17.2659 58.7816 1.90582 -43.348 0.757475 -62.1321 -5.54904 5.16259 -0.227521 0.531119 -1.29354 -0.0 0.0 -0.0 12.9635 19.4161 -26.201 -18.7104 27.3094 -62.6217 0.191496 5.41907 -0.0090627 -5.54704 0.228158 -0.671098 -2.66074 0.540575 18.3398 0.0 0.0 0.0 -16.2013 -4.43022 19.872 -16.7343 0.320224 2.53897 38.3327 24.6619 -4.9944 -20.1705 0.0 0.0 -0.0 0.0 -0.0 32.7758 24.4423 -9.32908 -15.7316 -0.322046 -2.38513 1.22803 -9.64901 0.179219 -32.4123 0.0 0.0 0.0 0.0 0.0 
2505.77 702.14 -1525.34 2.54334 63.089 -9.97471 -1.26994 0.809279 3.31609 -1.26402 0.59675 3.3608 -1.22311 -0.195595 3.40771 -1.23915 0.344726 3.39588 1.49558 13.2502 -4.23178 2.31611 26.8951 -3.65378 -0.0 0.0 -0.0 0.229816 14.9061 2.12264 3.52386 -17.7307 59.4918 1.65242 -39.2992 0.590046 -61.6508 -5.48874 5.1496 -0.435952 -0.483149 -3.11995 -0.0 0.0 -0.0 13.0065 21.67 -26.1305 -17.9205 27.223 -63.9286 0.195918 5.54343 -0.00948499 -5.54098 0.227873 -0.670377 -2.45006 -0.304162 16.4514 0.0 0.0 0.0 -15.9045 -2.95097 19.6494 -20.3147 0.291764 3.0875 37.7511 25.652 -4.96705 -21.175 0.0 0.0 -0.0 0.0 -0.0 27.5576 24.4423 -8.43137 -12.225 -0.30725 -1.8474 5.91044 -11.8553 0.853092 -32.2927 0.0 0.0 0.0 0.0 0.0 
2477.16 704.219 -1530.52 4.85355 62.5199 -12.1819 -1.50419 0.880268 3.38138 -1.49807 0.663448 3.43047 -1.45167 -0.160625 3.49027 -1.46845 0.392274 3.47189 1.72422 12.7551 -4.31109 2.51864 26.0588 -3.8208 -0.0 0.0 -0.0 -0.126786 15.8701 1.66456 1.50252 -16.972 61.3813 1.3826 -34.4054 0.428076 -61.8815 -5.51763 5.15589 -0.0342671 -2.80176 -1.41505 -0.0 0.0 -0.0 12.8848 21.5598 -25.8567 -16.3589 27.3462 -64.4484 0.193684 5.48063 -0.00927055 -5.00573 0.203039 -0.606603 -2.51204 -1.74029 16.1816 0.0 0.0 0.0 -15.2883 -3.51716 19.2251 -24.3674 0.218287 3.70492 38.437 23.6575 -4.97489 -21.308 0.0 0.0 -0.0 0.0 -0.0 24.4337 25.0825 -7.72769 -12.7161 -0.311304 -1.92265 6.01117 -8.01586 0.865541 -32.2684 0.0 0.0 0.0 0.0 0.0 
2454.22 706.731 -1531.35 4.63905 62.8199 -12.4514 -1.36805 0.874086 3.42949 -1.36175 0.654223 3.47808 -1.31546 -0.172389 3.5348 -1.33269 0.387678 3.51773 0.622112 13.6275 -4.87663 1.47148 28.1937 -4.14392 -0.0 0.0 -0.0 -0.000928077 17.4726 2.04586 -1.35593 -16.8446 61.7061 1.26433 -32.058 0.363248 -61.3526 -5.45144 5.1413 0.0233684 -2.19467 -0.77059 -0.0 0.0 -0.0 12.7696 22.735 -25.4863 -14.6431 27.8019 -64.8369 0.254231 7.17812 -0.0159462 -5.13114 0.208804 -0.621567 -2.25191 -1.34753 14.5758 0.0 0.0 0.0 -15.0394 -1.30681 18.5056 -26.6959 0.156374 4.05686 36.0783 23.033 -4.72098 -21.7514 0.0 0.0 -0.0 0.0 -0.0 21.9335 24.3623 -6.34361 -11.8283 -0.303505 -1.78665 16.6544 -11.2482 2.31286 -31.6892 0.0 0.0 0.0 0.0 0.0 
2442.55 713.887 -1532.56 6.2916 63.7912 -14.2663 -1.4277 0.550516 3.44619 -1.42116 0.330246 3.47419 -1.39507 -0.491976 3.45502 -1.41172 0.0595096 3.48932 -0.993433 14.195 -3.59764 -0.347791 28.3759 -2.28218 -0.0 0.0 -0.0 -0.220876 19.7295 1.97597 -1.13266 -16.6399 63.901 1.12678 -29.1683 0.293181 -60.7309 -5.37378 5.12335 -0.346755 1.168 -1.81675 -0.0 0.0 -0.0 12.9773 22.8837 -25.9543 -12.8306 27.7208 -64.1989 0.349644 9.82654 -0.0300567 -4.24189 0.168636 -0.515205 -2.31432 -3.9596 13.7365 0.0 0.0 0.0 -14.5569 -0.834027 16.9188 -28.5311 0.0975197 4.33235 39.0098 20.0989 -4.93819 -23.0446 0.0 0.0 -0.0 0.0 -0.0 18.4063 24.6312 -4.6447 -10.8761 -0.2928 -1.64095 19.1686 -14.7364 2.64996 -31.0887 0.0 0.0 0.0 0.0 0.0 
2425.81 717.152 -1536.85 7.54791 64.7568 -15.6791 -1.36628 0.436761 3.48526 -1.35955 0.214239 3.50596 -1.34063 -0.609126 3.45934 -1.35732 -0.0554949 3.51205 -1.96174 14.8874 -3.16814 -1.38483 29.4111 -1.49855 -0.0 0.0 -0.0 -0.241819 19.3707 1.90247 -3.80511 -16.1098 64.4646 0.936534 -24.8877 0.206666 -60.52 -5.3475 5.11708 -0.141774 1.25995 -0.413267 -0.0 0.0 -0.0 13.0738 23.394 -26.1294 -11.0263 28.3795 -63.9575 0.429168 12.0024 -0.0451168 -3.69479 0.144746 -0.449466 -2.32381 -5.12663 13.2285 0.0 0.0 0.0 -12.9907 -1.3625 15.6562 -30.3783 0.0293916 4.60764 37.5061 21.2146 -4.81919 -24.4687 0.0 0.0 -0.0 0.0 -0.0 15.635 25.3246 -3.43246 -9.86954 -0.278851 -1.48712 23.3073 -16.2597 3.17495 -29.6874 0.0 0.0 0.0 0.0 0.0 
2414.1 717.126 -1537.69 6.38703 66.4487 -14.3764 -1.31725 0.393355 3.25362 -1.31139 0.185635 3.27203 -1.29583 -0.579822 3.22564 -1.31034 -0.0634008 3.27667 -2.43483 15.4731 -2.6242 -1.89975 30.1159 -0.723859 -0.0 0.0 -0.0 -0.498715 20.3685 1.64655 -5.04517 -15.8638 65.9065 0.847835 -22.7819 0.170817 -60.0536 -5.28942 5.10285 -0.236804 2.96662 -0.321996 -0.0 0.0 -0.0 13.1579 23.7528 -26.2891 -10.2991 28.7334 -62.1201 0.572885 15.8436 -0.0797172 -3.11193 0.119988 -0.379187 -2.3628 -5.48404 13.3154 0.0 0.0 0.0 -12.7103 -0.289883 14.8043 -31.8633 -0.0318033 4.82731 38.8615 18.5071 -4.88995 -24.7324 0.0 0.0 -0.0 0.0 -0.0 14.7604 25.2432 -2.8017 -7.62701 -0.238071 -1.14545 25.8591 -19.1011 3.51291 -30.0771 0.0 0.0 0.0 0.0 0.0 
2404.83 714.013 -1538.9 7.34212 66.6335 -15.3108 -1.45239 0.377963 3.16979 -1.44681 0.1756 3.18739 -1.43215 -0.577374 3.13962 -1.4459 -0.0745469 3.19135 -3.34715 15.8795 -2.15088 -2.90917 30.6218 0.0783855 -0.0 0.0 -0.0 -0.844875 21.1208 1.24384 -6.16996 -15.6314 66.8988 0.766627 -20.795 0.14067 -59.9068 -5.27117 5.09827 -0.272276 3.79364 -0.206365 -0.0 0.0 -0.0 13.3357 24.037 -26.6739 -8.18059 29.6671 -62.0135 0.576951 15.9503 -0.0808307 -2.56235 0.0973004 -0.312696 -2.38323 -6.0976 13.1491 0.0 0.0 0.0 -12.1484 0.594444 14.2328 -32.9086 -0.0782842 4.98096 39.1164 18.059 -4.90489 -25.139 0.0 0.0 -0.0 0.0 -0.0 13.9725 25.194 -2.51939 -6.79713 -0.219593 -1.01944 28.34 -20.3526 3.82153 -28.9314 0.0 0.0 0.0 0.0 0.0 
